<?xml version="1.0" encoding="UTF-8" standalone="no" ?>
<!DOCTYPE svg PUBLIC "-//W3C//DTD SVG 1.1//EN" "http://www.w3.org/Graphics/SVG/1.1/DTD/svg11.dtd">
<svg xmlns="http://www.w3.org/2000/svg" xmlns:xlink="http://www.w3.org/1999/xlink" version="1.1" width="1000" height="800" viewBox="0 0 1000 800" xml:space="preserve">
<desc>Created with Fabric.js 4.6.0</desc>
<defs>
</defs>
<g transform="matrix(1 0 0 1 338 332.5)"  >
<rect style="stroke: none; stroke-width: 1; stroke-dasharray: none; stroke-linecap: butt; stroke-dashoffset: 0; stroke-linejoin: miter; stroke-miterlimit: 4; fill: rgb(0,128,0); fill-rule: nonzero; opacity: 1;"  x="-12.5" y="-25" rx="0" ry="0" width="25" height="50" />
</g>
<g transform="matrix(1 0 0 1 338 384.5)"  >
<rect style="stroke: none; stroke-width: 1; stroke-dasharray: none; stroke-linecap: butt; stroke-dashoffset: 0; stroke-linejoin: miter; stroke-miterlimit: 4; fill: rgb(0,128,0); fill-rule: nonzero; opacity: 1;"  x="-12.5" y="-25" rx="0" ry="0" width="25" height="50" />
</g>
<g transform="matrix(1 0 0 1 241 359.5)"  >
<rect style="stroke: none; stroke-width: 1; stroke-dasharray: none; stroke-linecap: butt; stroke-dashoffset: 0; stroke-linejoin: miter; stroke-miterlimit: 4; fill: rgb(0,128,0); fill-rule: nonzero; opacity: 1;"  x="-12.5" y="-25" rx="0" ry="0" width="25" height="50" />
</g>
<g transform="matrix(1 0 0 1 885 533.5)"  >
<rect style="stroke: none; stroke-width: 1; stroke-dasharray: none; stroke-linecap: butt; stroke-dashoffset: 0; stroke-linejoin: miter; stroke-miterlimit: 4; fill: rgb(0,128,0); fill-rule: nonzero; opacity: 1;"  x="-12.5" y="-25" rx="0" ry="0" width="25" height="50" />
</g>
<g transform="matrix(1 0 0 1 784 533.5)"  >
<rect style="stroke: none; stroke-width: 1; stroke-dasharray: none; stroke-linecap: butt; stroke-dashoffset: 0; stroke-linejoin: miter; stroke-miterlimit: 4; fill: rgb(0,128,0); fill-rule: nonzero; opacity: 1;"  x="-12.5" y="-25" rx="0" ry="0" width="25" height="50" />
</g>
<g transform="matrix(1 0 0 1 784 586.5)"  >
<rect style="stroke: none; stroke-width: 1; stroke-dasharray: none; stroke-linecap: butt; stroke-dashoffset: 0; stroke-linejoin: miter; stroke-miterlimit: 4; fill: rgb(0,128,0); fill-rule: nonzero; opacity: 1;"  x="-12.5" y="-25" rx="0" ry="0" width="25" height="50" />
</g>
<g transform="matrix(1 0 0 1 812 533.5)"  >
<rect style="stroke: none; stroke-width: 1; stroke-dasharray: none; stroke-linecap: butt; stroke-dashoffset: 0; stroke-linejoin: miter; stroke-miterlimit: 4; fill: rgb(0,128,0); fill-rule: nonzero; opacity: 1;"  x="-12.5" y="-25" rx="0" ry="0" width="25" height="50" />
</g>
<g transform="matrix(1 0 0 1 812 586.5)"  >
<rect style="stroke: none; stroke-width: 1; stroke-dasharray: none; stroke-linecap: butt; stroke-dashoffset: 0; stroke-linejoin: miter; stroke-miterlimit: 4; fill: rgb(0,128,0); fill-rule: nonzero; opacity: 1;"  x="-12.5" y="-25" rx="0" ry="0" width="25" height="50" />
</g>
<g transform="matrix(1 0 0 1 702 533.5)"  >
<rect style="stroke: none; stroke-width: 1; stroke-dasharray: none; stroke-linecap: butt; stroke-dashoffset: 0; stroke-linejoin: miter; stroke-miterlimit: 4; fill: rgb(0,128,0); fill-rule: nonzero; opacity: 1;"  x="-12.5" y="-25" rx="0" ry="0" width="25" height="50" />
</g>
<g transform="matrix(1 0 0 1 338 547.5)"  >
<rect style="stroke: none; stroke-width: 1; stroke-dasharray: none; stroke-linecap: butt; stroke-dashoffset: 0; stroke-linejoin: miter; stroke-miterlimit: 4; fill: rgb(0,128,0); fill-rule: nonzero; opacity: 1;"  x="-12.5" y="-25" rx="0" ry="0" width="25" height="50" />
</g>
<g transform="matrix(0 1 -1 0 258 520.5)"  >
<rect style="stroke: none; stroke-width: 1; stroke-dasharray: none; stroke-linecap: butt; stroke-dashoffset: 0; stroke-linejoin: miter; stroke-miterlimit: 4; fill: rgb(0,128,0); fill-rule: nonzero; opacity: 1;"  x="-12.5" y="-25" rx="0" ry="0" width="25" height="50" />
</g>
<g transform="matrix(1 0 0 1 497 533.5)"  >
<rect style="stroke: none; stroke-width: 1; stroke-dasharray: none; stroke-linecap: butt; stroke-dashoffset: 0; stroke-linejoin: miter; stroke-miterlimit: 4; fill: rgb(255,0,0); fill-rule: nonzero; opacity: 1;"  x="-12.5" y="-25" rx="0" ry="0" width="25" height="50" />
</g>
<g transform="matrix(1 0 0 1 525 533.5)"  >
<rect style="stroke: none; stroke-width: 1; stroke-dasharray: none; stroke-linecap: butt; stroke-dashoffset: 0; stroke-linejoin: miter; stroke-miterlimit: 4; fill: rgb(255,0,0); fill-rule: nonzero; opacity: 1;"  x="-12.5" y="-25" rx="0" ry="0" width="25" height="50" />
</g>
<g transform="matrix(1 0 0 1 108 281.5)"  >
<rect style="stroke: none; stroke-width: 1; stroke-dasharray: none; stroke-linecap: butt; stroke-dashoffset: 0; stroke-linejoin: miter; stroke-miterlimit: 4; fill: rgb(255,0,0); fill-rule: nonzero; opacity: 1;"  x="-12.5" y="-25" rx="0" ry="0" width="25" height="50" />
</g>
<g transform="matrix(1 0 0 1 418 714.5)"  >
<rect style="stroke: none; stroke-width: 1; stroke-dasharray: none; stroke-linecap: butt; stroke-dashoffset: 0; stroke-linejoin: miter; stroke-miterlimit: 4; fill: rgb(0,0,255); fill-rule: nonzero; opacity: 1;"  x="-12.5" y="-25" rx="0" ry="0" width="25" height="50" />
</g>
<g transform="matrix(1 0 0 1 418 662.5)"  >
<rect style="stroke: none; stroke-width: 1; stroke-dasharray: none; stroke-linecap: butt; stroke-dashoffset: 0; stroke-linejoin: miter; stroke-miterlimit: 4; fill: rgb(0,0,255); fill-rule: nonzero; opacity: 1;"  x="-12.5" y="-25" rx="0" ry="0" width="25" height="50" />
</g>
<g transform="matrix(1 0 0 1 391 662.5)"  >
<rect style="stroke: none; stroke-width: 1; stroke-dasharray: none; stroke-linecap: butt; stroke-dashoffset: 0; stroke-linejoin: miter; stroke-miterlimit: 4; fill: rgb(0,0,255); fill-rule: nonzero; opacity: 1;"  x="-12.5" y="-25" rx="0" ry="0" width="25" height="50" />
</g>
<g transform="matrix(1 0 0 1 391 714.5)"  >
<rect style="stroke: none; stroke-width: 1; stroke-dasharray: none; stroke-linecap: butt; stroke-dashoffset: 0; stroke-linejoin: miter; stroke-miterlimit: 4; fill: rgb(0,0,255); fill-rule: nonzero; opacity: 1;"  x="-12.5" y="-25" rx="0" ry="0" width="25" height="50" />
</g>
<g transform="matrix(1 0 0 1 323 714.5)"  >
<rect style="stroke: none; stroke-width: 1; stroke-dasharray: none; stroke-linecap: butt; stroke-dashoffset: 0; stroke-linejoin: miter; stroke-miterlimit: 4; fill: rgb(0,0,255); fill-rule: nonzero; opacity: 1;"  x="-12.5" y="-25" rx="0" ry="0" width="25" height="50" />
</g>
<g transform="matrix(1 0 0 1 296 714.5)"  >
<rect style="stroke: none; stroke-width: 1; stroke-dasharray: none; stroke-linecap: butt; stroke-dashoffset: 0; stroke-linejoin: miter; stroke-miterlimit: 4; fill: rgb(0,0,255); fill-rule: nonzero; opacity: 1;"  x="-12.5" y="-25" rx="0" ry="0" width="25" height="50" />
</g>
<g transform="matrix(1 0 0 1 323 662.5)"  >
<rect style="stroke: none; stroke-width: 1; stroke-dasharray: none; stroke-linecap: butt; stroke-dashoffset: 0; stroke-linejoin: miter; stroke-miterlimit: 4; fill: rgb(0,0,255); fill-rule: nonzero; opacity: 1;"  x="-12.5" y="-25" rx="0" ry="0" width="25" height="50" />
</g>
<g transform="matrix(1 0 0 1 296 662.5)"  >
<rect style="stroke: none; stroke-width: 1; stroke-dasharray: none; stroke-linecap: butt; stroke-dashoffset: 0; stroke-linejoin: miter; stroke-miterlimit: 4; fill: rgb(0,0,255); fill-rule: nonzero; opacity: 1;"  x="-12.5" y="-25" rx="0" ry="0" width="25" height="50" />
</g>
<g transform="matrix(1 0 0 1 225 714.5)"  >
<rect style="stroke: none; stroke-width: 1; stroke-dasharray: none; stroke-linecap: butt; stroke-dashoffset: 0; stroke-linejoin: miter; stroke-miterlimit: 4; fill: rgb(0,0,255); fill-rule: nonzero; opacity: 1;"  x="-12.5" y="-25" rx="0" ry="0" width="25" height="50" />
</g>
<g transform="matrix(1 0 0 1 225 662.5)"  >
<rect style="stroke: none; stroke-width: 1; stroke-dasharray: none; stroke-linecap: butt; stroke-dashoffset: 0; stroke-linejoin: miter; stroke-miterlimit: 4; fill: rgb(0,0,255); fill-rule: nonzero; opacity: 1;"  x="-12.5" y="-25" rx="0" ry="0" width="25" height="50" />
</g>
<g transform="matrix(0 1 -1 0 121 541.5)"  >
<rect style="stroke: none; stroke-width: 1; stroke-dasharray: none; stroke-linecap: butt; stroke-dashoffset: 0; stroke-linejoin: miter; stroke-miterlimit: 4; fill: rgb(0,0,255); fill-rule: nonzero; opacity: 1;"  x="-12.5" y="-25" rx="0" ry="0" width="25" height="50" />
</g>
<g transform="matrix(0 1 -1 0 121 514.5)"  >
<rect style="stroke: none; stroke-width: 1; stroke-dasharray: none; stroke-linecap: butt; stroke-dashoffset: 0; stroke-linejoin: miter; stroke-miterlimit: 4; fill: rgb(0,128,0); fill-rule: nonzero; opacity: 1;"  x="-12.5" y="-25" rx="0" ry="0" width="25" height="50" />
</g>
<g transform="matrix(-0.01 1 -1 -0.01 121 431.5)"  >
<rect style="stroke: none; stroke-width: 1; stroke-dasharray: none; stroke-linecap: butt; stroke-dashoffset: 0; stroke-linejoin: miter; stroke-miterlimit: 4; fill: rgb(255,0,0); fill-rule: nonzero; opacity: 1;"  x="-12.5" y="-25" rx="0" ry="0" width="25" height="50" />
</g>
<g transform="matrix(1 0 0 1 110 713.5)"  >
<rect style="stroke: none; stroke-width: 1; stroke-dasharray: none; stroke-linecap: butt; stroke-dashoffset: 0; stroke-linejoin: miter; stroke-miterlimit: 4; fill: rgb(0,128,0); fill-rule: nonzero; opacity: 1;"  x="-12.5" y="-25" rx="0" ry="0" width="25" height="50" />
</g>
<g transform="matrix(1 0 0 1 110 661.5)"  >
<rect style="stroke: none; stroke-width: 1; stroke-dasharray: none; stroke-linecap: butt; stroke-dashoffset: 0; stroke-linejoin: miter; stroke-miterlimit: 4; fill: rgb(0,128,0); fill-rule: nonzero; opacity: 1;"  x="-12.5" y="-25" rx="0" ry="0" width="25" height="50" />
</g>
<g transform="matrix(1 0 0 1 110 608.5)"  >
<rect style="stroke: none; stroke-width: 1; stroke-dasharray: none; stroke-linecap: butt; stroke-dashoffset: 0; stroke-linejoin: miter; stroke-miterlimit: 4; fill: rgb(0,128,0); fill-rule: nonzero; opacity: 1;"  x="-12.5" y="-25" rx="0" ry="0" width="25" height="50" />
</g>
<g transform="matrix(1 0 0 1 198 714.5)"  >
<rect style="stroke: none; stroke-width: 1; stroke-dasharray: none; stroke-linecap: butt; stroke-dashoffset: 0; stroke-linejoin: miter; stroke-miterlimit: 4; fill: rgb(0,128,0); fill-rule: nonzero; opacity: 1;"  x="-12.5" y="-25" rx="0" ry="0" width="25" height="50" />
</g>
<g transform="matrix(1 0 0 1 198 662.5)"  >
<rect style="stroke: none; stroke-width: 1; stroke-dasharray: none; stroke-linecap: butt; stroke-dashoffset: 0; stroke-linejoin: miter; stroke-miterlimit: 4; fill: rgb(0,128,0); fill-rule: nonzero; opacity: 1;"  x="-12.5" y="-25" rx="0" ry="0" width="25" height="50" />
</g>
<g transform="matrix(-0.01 1 -1 -0.01 121 458.5)"  >
<rect style="stroke: none; stroke-width: 1; stroke-dasharray: none; stroke-linecap: butt; stroke-dashoffset: 0; stroke-linejoin: miter; stroke-miterlimit: 4; fill: rgb(0,128,0); fill-rule: nonzero; opacity: 1;"  x="-12.5" y="-25" rx="0" ry="0" width="25" height="50" />
</g>
<g transform="matrix(0 1 -1 0 121 375.5)"  >
<rect style="stroke: none; stroke-width: 1; stroke-dasharray: none; stroke-linecap: butt; stroke-dashoffset: 0; stroke-linejoin: miter; stroke-miterlimit: 4; fill: rgb(0,128,0); fill-rule: nonzero; opacity: 1;"  x="-12.5" y="-25" rx="0" ry="0" width="25" height="50" />
</g>
<g transform="matrix(-0.01 1 -1 -0.01 186 237.5)"  >
<rect style="stroke: none; stroke-width: 1; stroke-dasharray: none; stroke-linecap: butt; stroke-dashoffset: 0; stroke-linejoin: miter; stroke-miterlimit: 4; fill: rgb(0,128,0); fill-rule: nonzero; opacity: 1;"  x="-12.5" y="-25" rx="0" ry="0" width="25" height="50" />
</g>
<g transform="matrix(0 1 -1 0 121 348.5)"  >
<rect style="stroke: none; stroke-width: 1; stroke-dasharray: none; stroke-linecap: butt; stroke-dashoffset: 0; stroke-linejoin: miter; stroke-miterlimit: 4; fill: rgb(0,128,0); fill-rule: nonzero; opacity: 1;"  x="-12.5" y="-25" rx="0" ry="0" width="25" height="50" />
</g>
<g transform="matrix(0 1 -1 0 258 487.5)"  >
<rect style="stroke: none; stroke-width: 1; stroke-dasharray: none; stroke-linecap: butt; stroke-dashoffset: 0; stroke-linejoin: miter; stroke-miterlimit: 4; fill: rgb(0,128,0); fill-rule: nonzero; opacity: 1;"  x="-12.5" y="-25" rx="0" ry="0" width="25" height="50" />
</g>
<g transform="matrix(0 1 -1 0 325 430.5)"  >
<rect style="stroke: none; stroke-width: 1; stroke-dasharray: none; stroke-linecap: butt; stroke-dashoffset: 0; stroke-linejoin: miter; stroke-miterlimit: 4; fill: rgb(0,128,0); fill-rule: nonzero; opacity: 1;"  x="-12.5" y="-25" rx="0" ry="0" width="25" height="50" />
</g>
<g transform="matrix(1 0 0 1 628 714.5)"  >
<rect style="stroke: none; stroke-width: 1; stroke-dasharray: none; stroke-linecap: butt; stroke-dashoffset: 0; stroke-linejoin: miter; stroke-miterlimit: 4; fill: rgb(0,128,0); fill-rule: nonzero; opacity: 1;"  x="-12.5" y="-25" rx="0" ry="0" width="25" height="50" />
</g>
<g transform="matrix(1 0 0 0.92 742 669.67)"  >
<rect style="stroke: none; stroke-width: 1; stroke-dasharray: none; stroke-linecap: butt; stroke-dashoffset: 0; stroke-linejoin: miter; stroke-miterlimit: 4; fill: rgb(0,128,0); fill-rule: nonzero; opacity: 1;"  x="-12.5" y="-25" rx="0" ry="0" width="25" height="50" />
</g>
<g transform="matrix(1 0 0 0.95 742 717.67)"  >
<rect style="stroke: none; stroke-width: 1; stroke-dasharray: none; stroke-linecap: butt; stroke-dashoffset: 0; stroke-linejoin: miter; stroke-miterlimit: 4; fill: rgb(0,128,0); fill-rule: nonzero; opacity: 1;"  x="-12.5" y="-25" rx="0" ry="0" width="25" height="50" />
</g>
<g transform="matrix(1 0 0 0.92 771 717.67)"  >
<rect style="stroke: none; stroke-width: 1; stroke-dasharray: none; stroke-linecap: butt; stroke-dashoffset: 0; stroke-linejoin: miter; stroke-miterlimit: 4; fill: rgb(0,128,0); fill-rule: nonzero; opacity: 1;"  x="-12.5" y="-25" rx="0" ry="0" width="25" height="50" />
</g>
<g transform="matrix(0 1 -1 0 874 660.5)"  >
<rect style="stroke: none; stroke-width: 1; stroke-dasharray: none; stroke-linecap: butt; stroke-dashoffset: 0; stroke-linejoin: miter; stroke-miterlimit: 4; fill: rgb(0,128,0); fill-rule: nonzero; opacity: 1;"  x="-12.5" y="-25" rx="0" ry="0" width="25" height="50" />
</g>
<g transform="matrix(0.01 1 -1 0.01 874 727.5)"  >
<rect style="stroke: none; stroke-width: 1; stroke-dasharray: none; stroke-linecap: butt; stroke-dashoffset: 0; stroke-linejoin: miter; stroke-miterlimit: 4; fill: rgb(0,128,0); fill-rule: nonzero; opacity: 1;"  x="-12.5" y="-25" rx="0" ry="0" width="25" height="50" />
</g>
<g transform="matrix(0 1.46 -1.46 0 537.73 696.48)"  >
<rect style="stroke: none; stroke-width: 1; stroke-dasharray: none; stroke-linecap: butt; stroke-dashoffset: 0; stroke-linejoin: miter; stroke-miterlimit: 4; fill: rgb(0,128,0); fill-rule: nonzero; opacity: 1;"  x="-12.5" y="-25" rx="0" ry="0" width="25" height="50" />
</g>
<g transform="matrix(1.63 0 0 1.99 270.16 126.66)"  >
<rect style="stroke: none; stroke-width: 1; stroke-dasharray: none; stroke-linecap: butt; stroke-dashoffset: 0; stroke-linejoin: miter; stroke-miterlimit: 4; fill: rgb(0,128,0); fill-rule: nonzero; opacity: 1;"  x="-12.5" y="-25" rx="0" ry="0" width="25" height="50" />
</g>
</svg>