<?xml version="1.0" encoding="UTF-8" standalone="no" ?>
<!DOCTYPE svg PUBLIC "-//W3C//DTD SVG 1.1//EN" "http://www.w3.org/Graphics/SVG/1.1/DTD/svg11.dtd">
<svg xmlns="http://www.w3.org/2000/svg" xmlns:xlink="http://www.w3.org/1999/xlink" version="1.1" width="1000" height="800" viewBox="0 0 1000 800" xml:space="preserve">
<desc>Created with Fabric.js 4.6.0</desc>
<defs>
</defs>
<g transform="matrix(1.89 0 0 1.89 268.85 132.12)" id="1"  >
<rect style="stroke: rgb(0,0,0); stroke-width: 1; stroke-dasharray: none; stroke-linecap: butt; stroke-dashoffset: 0; stroke-linejoin: miter; stroke-miterlimit: 4; fill: rgb(199,228,167); fill-rule: nonzero; opacity: 1;"  x="-12.5" y="-25" rx="0" ry="0" width="25" height="50" />
</g>
<g transform="matrix(0 1 -1 0 189.35 237.23)" id="1"  >
<rect style="stroke: rgb(0,0,0); stroke-width: 1; stroke-dasharray: none; stroke-linecap: butt; stroke-dashoffset: 0; stroke-linejoin: miter; stroke-miterlimit: 4; fill: rgb(199,228,167); fill-rule: nonzero; opacity: 1;"  x="-12.5" y="-25" rx="0" ry="0" width="25" height="50" />
</g>
<g transform="matrix(1 0 0 1 241.29 362.05)" id="1"  >
<rect style="stroke: rgb(0,0,0); stroke-width: 1; stroke-dasharray: none; stroke-linecap: butt; stroke-dashoffset: 0; stroke-linejoin: miter; stroke-miterlimit: 4; fill: rgb(199,228,167); fill-rule: nonzero; opacity: 1;"  x="-12.5" y="-25" rx="0" ry="0" width="25" height="50" />
</g>
<g transform="matrix(1 0 0 1 338.18 385.02)" id="1"  >
<rect style="stroke: rgb(0,0,0); stroke-width: 1; stroke-dasharray: none; stroke-linecap: butt; stroke-dashoffset: 0; stroke-linejoin: miter; stroke-miterlimit: 4; fill: rgb(199,228,167); fill-rule: nonzero; opacity: 1;"  x="-12.5" y="-25" rx="0" ry="0" width="25" height="50" />
</g>
<g transform="matrix(1 0 0 1 338.18 332.09)" id="1"  >
<rect style="stroke: rgb(0,0,0); stroke-width: 1; stroke-dasharray: none; stroke-linecap: butt; stroke-dashoffset: 0; stroke-linejoin: miter; stroke-miterlimit: 4; fill: rgb(199,228,167); fill-rule: nonzero; opacity: 1;"  x="-12.5" y="-25" rx="0" ry="0" width="25" height="50" />
</g>
<g transform="matrix(0 1 -1 0 325.19 430.96)" id="1"  >
<rect style="stroke: rgb(0,0,0); stroke-width: 1; stroke-dasharray: none; stroke-linecap: butt; stroke-dashoffset: 0; stroke-linejoin: miter; stroke-miterlimit: 4; fill: rgb(199,228,167); fill-rule: nonzero; opacity: 1;"  x="-12.5" y="-25" rx="0" ry="0" width="25" height="50" />
</g>
<g transform="matrix(0 1 -1 0 259.27 486.88)" id="1"  >
<rect style="stroke: rgb(0,0,0); stroke-width: 1; stroke-dasharray: none; stroke-linecap: butt; stroke-dashoffset: 0; stroke-linejoin: miter; stroke-miterlimit: 4; fill: rgb(199,228,167); fill-rule: nonzero; opacity: 1;"  x="-12.5" y="-25" rx="0" ry="0" width="25" height="50" />
</g>
<g transform="matrix(0 1 -1 0 259.27 520.83)" id="1"  >
<rect style="stroke: rgb(0,0,0); stroke-width: 1; stroke-dasharray: none; stroke-linecap: butt; stroke-dashoffset: 0; stroke-linejoin: miter; stroke-miterlimit: 4; fill: rgb(199,228,167); fill-rule: nonzero; opacity: 1;"  x="-12.5" y="-25" rx="0" ry="0" width="25" height="50" />
</g>
<g transform="matrix(1 0 0 1 338.18 546.8)" id="1"  >
<rect style="stroke: rgb(0,0,0); stroke-width: 1; stroke-dasharray: none; stroke-linecap: butt; stroke-dashoffset: 0; stroke-linejoin: miter; stroke-miterlimit: 4; fill: rgb(199,228,167); fill-rule: nonzero; opacity: 1;"  x="-12.5" y="-25" rx="0" ry="0" width="25" height="50" />
</g>
<g transform="matrix(0 1 -1 0 120.42 372.04)" id="1"  >
<rect style="stroke: rgb(0,0,0); stroke-width: 1; stroke-dasharray: none; stroke-linecap: butt; stroke-dashoffset: 0; stroke-linejoin: miter; stroke-miterlimit: 4; fill: rgb(199,228,167); fill-rule: nonzero; opacity: 1;"  x="-12.5" y="-25" rx="0" ry="0" width="25" height="50" />
</g>
<g transform="matrix(0 1 -1 0 120.42 344.08)" id="1"  >
<rect style="stroke: rgb(0,0,0); stroke-width: 1; stroke-dasharray: none; stroke-linecap: butt; stroke-dashoffset: 0; stroke-linejoin: miter; stroke-miterlimit: 4; fill: rgb(199,228,167); fill-rule: nonzero; opacity: 1;"  x="-12.5" y="-25" rx="0" ry="0" width="25" height="50" />
</g>
<g transform="matrix(0 1 -1 0 120.42 458.92)" id="1"  >
<rect style="stroke: rgb(0,0,0); stroke-width: 1; stroke-dasharray: none; stroke-linecap: butt; stroke-dashoffset: 0; stroke-linejoin: miter; stroke-miterlimit: 4; fill: rgb(199,228,167); fill-rule: nonzero; opacity: 1;"  x="-12.5" y="-25" rx="0" ry="0" width="25" height="50" />
</g>
<g transform="matrix(0 1 -1 0 120.42 514.84)" id="1"  >
<rect style="stroke: rgb(0,0,0); stroke-width: 1; stroke-dasharray: none; stroke-linecap: butt; stroke-dashoffset: 0; stroke-linejoin: miter; stroke-miterlimit: 4; fill: rgb(199,228,167); fill-rule: nonzero; opacity: 1;"  x="-12.5" y="-25" rx="0" ry="0" width="25" height="50" />
</g>
<g transform="matrix(1 0 0 1 107.44 609.71)" id="1"  >
<rect style="stroke: rgb(0,0,0); stroke-width: 1; stroke-dasharray: none; stroke-linecap: butt; stroke-dashoffset: 0; stroke-linejoin: miter; stroke-miterlimit: 4; fill: rgb(199,228,167); fill-rule: nonzero; opacity: 1;"  x="-12.5" y="-25" rx="0" ry="0" width="25" height="50" />
</g>
<g transform="matrix(1 0 0 1 107.44 661.64)" id="1"  >
<rect style="stroke: rgb(0,0,0); stroke-width: 1; stroke-dasharray: none; stroke-linecap: butt; stroke-dashoffset: 0; stroke-linejoin: miter; stroke-miterlimit: 4; fill: rgb(199,228,167); fill-rule: nonzero; opacity: 1;"  x="-12.5" y="-25" rx="0" ry="0" width="25" height="50" />
</g>
<g transform="matrix(1 0 0 1 107.44 713.56)" id="1"  >
<rect style="stroke: rgb(0,0,0); stroke-width: 1; stroke-dasharray: none; stroke-linecap: butt; stroke-dashoffset: 0; stroke-linejoin: miter; stroke-miterlimit: 4; fill: rgb(199,228,167); fill-rule: nonzero; opacity: 1;"  x="-12.5" y="-25" rx="0" ry="0" width="25" height="50" />
</g>
<g transform="matrix(1 0 0 1 197.34 662.63)" id="1"  >
<rect style="stroke: rgb(0,0,0); stroke-width: 1; stroke-dasharray: none; stroke-linecap: butt; stroke-dashoffset: 0; stroke-linejoin: miter; stroke-miterlimit: 4; fill: rgb(199,228,167); fill-rule: nonzero; opacity: 1;"  x="-12.5" y="-25" rx="0" ry="0" width="25" height="50" />
</g>
<g transform="matrix(1 0 0 1 197.34 714.56)" id="1"  >
<rect style="stroke: rgb(0,0,0); stroke-width: 1; stroke-dasharray: none; stroke-linecap: butt; stroke-dashoffset: 0; stroke-linejoin: miter; stroke-miterlimit: 4; fill: rgb(199,228,167); fill-rule: nonzero; opacity: 1;"  x="-12.5" y="-25" rx="0" ry="0" width="25" height="50" />
</g>
<g transform="matrix(1 0 0 1 687.79 532.82)" id="1"  >
<rect style="stroke: rgb(0,0,0); stroke-width: 1; stroke-dasharray: none; stroke-linecap: butt; stroke-dashoffset: 0; stroke-linejoin: miter; stroke-miterlimit: 4; fill: rgb(199,228,167); fill-rule: nonzero; opacity: 1;"  x="-12.5" y="-25" rx="0" ry="0" width="25" height="50" />
</g>
<g transform="matrix(1 0 0 1 816.65 532.82)" id="1"  >
<rect style="stroke: rgb(0,0,0); stroke-width: 1; stroke-dasharray: none; stroke-linecap: butt; stroke-dashoffset: 0; stroke-linejoin: miter; stroke-miterlimit: 4; fill: rgb(199,228,167); fill-rule: nonzero; opacity: 1;"  x="-12.5" y="-25" rx="0" ry="0" width="25" height="50" />
</g>
<g transform="matrix(1 0 0 1 788.68 532.82)" id="1"  >
<rect style="stroke: rgb(0,0,0); stroke-width: 1; stroke-dasharray: none; stroke-linecap: butt; stroke-dashoffset: 0; stroke-linejoin: miter; stroke-miterlimit: 4; fill: rgb(199,228,167); fill-rule: nonzero; opacity: 1;"  x="-12.5" y="-25" rx="0" ry="0" width="25" height="50" />
</g>
<g transform="matrix(1 0 0 1 816.65 585.74)" id="1"  >
<rect style="stroke: rgb(0,0,0); stroke-width: 1; stroke-dasharray: none; stroke-linecap: butt; stroke-dashoffset: 0; stroke-linejoin: miter; stroke-miterlimit: 4; fill: rgb(199,228,167); fill-rule: nonzero; opacity: 1;"  x="-12.5" y="-25" rx="0" ry="0" width="25" height="50" />
</g>
<g transform="matrix(1 0 0 1 788.68 585.74)" id="1"  >
<rect style="stroke: rgb(0,0,0); stroke-width: 1; stroke-dasharray: none; stroke-linecap: butt; stroke-dashoffset: 0; stroke-linejoin: miter; stroke-miterlimit: 4; fill: rgb(199,228,167); fill-rule: nonzero; opacity: 1;"  x="-12.5" y="-25" rx="0" ry="0" width="25" height="50" />
</g>
<g transform="matrix(1 0 0 1 885.57 532.82)" id="1"  >
<rect style="stroke: rgb(0,0,0); stroke-width: 1; stroke-dasharray: none; stroke-linecap: butt; stroke-dashoffset: 0; stroke-linejoin: miter; stroke-miterlimit: 4; fill: rgb(199,228,167); fill-rule: nonzero; opacity: 1;"  x="-12.5" y="-25" rx="0" ry="0" width="25" height="50" />
</g>
<g transform="matrix(0 1 -1 0 873.58 726.55)" id="1"  >
<rect style="stroke: rgb(0,0,0); stroke-width: 1; stroke-dasharray: none; stroke-linecap: butt; stroke-dashoffset: 0; stroke-linejoin: miter; stroke-miterlimit: 4; fill: rgb(199,228,167); fill-rule: nonzero; opacity: 1;"  x="-12.5" y="-25" rx="0" ry="0" width="25" height="50" />
</g>
<g transform="matrix(0 1 -1 0 873.58 659.64)" id="1"  >
<rect style="stroke: rgb(0,0,0); stroke-width: 1; stroke-dasharray: none; stroke-linecap: butt; stroke-dashoffset: 0; stroke-linejoin: miter; stroke-miterlimit: 4; fill: rgb(199,228,167); fill-rule: nonzero; opacity: 1;"  x="-12.5" y="-25" rx="0" ry="0" width="25" height="50" />
</g>
<g transform="matrix(1 0 0 0.87 771.7 717.9)" id="1"  >
<rect style="stroke: rgb(0,0,0); stroke-width: 1; stroke-dasharray: none; stroke-linecap: butt; stroke-dashoffset: 0; stroke-linejoin: miter; stroke-miterlimit: 4; fill: rgb(199,228,167); fill-rule: nonzero; opacity: 1;"  x="-12.5" y="-25" rx="0" ry="0" width="25" height="50" />
</g>
<g transform="matrix(1 0 0 0.87 626.86 717.9)" id="1"  >
<rect style="stroke: rgb(0,0,0); stroke-width: 1; stroke-dasharray: none; stroke-linecap: butt; stroke-dashoffset: 0; stroke-linejoin: miter; stroke-miterlimit: 4; fill: rgb(199,228,167); fill-rule: nonzero; opacity: 1;"  x="-12.5" y="-25" rx="0" ry="0" width="25" height="50" />
</g>
<g transform="matrix(1 0 0 0.89 739.73 718.4)" id="1"  >
<rect style="stroke: rgb(0,0,0); stroke-width: 1; stroke-dasharray: none; stroke-linecap: butt; stroke-dashoffset: 0; stroke-linejoin: miter; stroke-miterlimit: 4; fill: rgb(199,228,167); fill-rule: nonzero; opacity: 1;"  x="-12.5" y="-25" rx="0" ry="0" width="25" height="50" />
</g>
<g transform="matrix(1 0 0 0.91 739.73 669.44)" id="1"  >
<rect style="stroke: rgb(0,0,0); stroke-width: 1; stroke-dasharray: none; stroke-linecap: butt; stroke-dashoffset: 0; stroke-linejoin: miter; stroke-miterlimit: 4; fill: rgb(199,228,167); fill-rule: nonzero; opacity: 1;"  x="-12.5" y="-25" rx="0" ry="0" width="25" height="50" />
</g>
<g transform="matrix(0 1.28 -1.28 0 539.15 692.26)" id="1"  >
<rect style="stroke: rgb(0,0,0); stroke-width: 1; stroke-dasharray: none; stroke-linecap: butt; stroke-dashoffset: 0; stroke-linejoin: miter; stroke-miterlimit: 4; fill: rgb(199,228,167); fill-rule: nonzero; opacity: 1;"  x="-12.5" y="-25" rx="0" ry="0" width="25" height="50" />
</g>
<g transform="matrix(1 0 0 1 523.97 532.82)"  >
<rect style="stroke: rgb(0,0,0); stroke-width: 1; stroke-dasharray: none; stroke-linecap: butt; stroke-dashoffset: 0; stroke-linejoin: miter; stroke-miterlimit: 4; fill: rgb(247,168,178); fill-rule: nonzero; opacity: 1;"  x="-12.5" y="-25" rx="0" ry="0" width="25" height="50" />
</g>
<g transform="matrix(1 0 0 1 496 532.82)"  >
<rect style="stroke: rgb(0,0,0); stroke-width: 1; stroke-dasharray: none; stroke-linecap: butt; stroke-dashoffset: 0; stroke-linejoin: miter; stroke-miterlimit: 4; fill: rgb(247,168,178); fill-rule: nonzero; opacity: 1;"  x="-12.5" y="-25" rx="0" ry="0" width="25" height="50" />
</g>
<g transform="matrix(0 1 -1 0 120.42 431.96)"  >
<rect style="stroke: rgb(0,0,0); stroke-width: 1; stroke-dasharray: none; stroke-linecap: butt; stroke-dashoffset: 0; stroke-linejoin: miter; stroke-miterlimit: 4; fill: rgb(247,168,178); fill-rule: nonzero; opacity: 1;"  x="-12.5" y="-25" rx="0" ry="0" width="25" height="50" />
</g>
<g transform="matrix(1 0 0 1 107.44 279.17)"  >
<rect style="stroke: rgb(0,0,0); stroke-width: 1; stroke-dasharray: none; stroke-linecap: butt; stroke-dashoffset: 0; stroke-linejoin: miter; stroke-miterlimit: 4; fill: rgb(247,168,178); fill-rule: nonzero; opacity: 1;"  x="-12.5" y="-25" rx="0" ry="0" width="25" height="50" />
</g>
<g transform="matrix(1 0 0 1 393.12 714.56)" id="2"  >
<rect style="stroke: rgb(0,0,0); stroke-width: 1; stroke-dasharray: none; stroke-linecap: butt; stroke-dashoffset: 0; stroke-linejoin: miter; stroke-miterlimit: 4; fill: rgb(125,153,232); fill-rule: nonzero; opacity: 1;"  x="-12.5" y="-25" rx="0" ry="0" width="25" height="50" />
</g>
<g transform="matrix(1 0 0 1 393.12 662.63)" id="2"  >
<rect style="stroke: rgb(0,0,0); stroke-width: 1; stroke-dasharray: none; stroke-linecap: butt; stroke-dashoffset: 0; stroke-linejoin: miter; stroke-miterlimit: 4; fill: rgb(125,153,232); fill-rule: nonzero; opacity: 1;"  x="-12.5" y="-25" rx="0" ry="0" width="25" height="50" />
</g>
<g transform="matrix(1 0 0 1 421.09 662.63)" id="2"  >
<rect style="stroke: rgb(0,0,0); stroke-width: 1; stroke-dasharray: none; stroke-linecap: butt; stroke-dashoffset: 0; stroke-linejoin: miter; stroke-miterlimit: 4; fill: rgb(125,153,232); fill-rule: nonzero; opacity: 1;"  x="-12.5" y="-25" rx="0" ry="0" width="25" height="50" />
</g>
<g transform="matrix(1 0 0 1 421.09 714.56)" id="2"  >
<rect style="stroke: rgb(0,0,0); stroke-width: 1; stroke-dasharray: none; stroke-linecap: butt; stroke-dashoffset: 0; stroke-linejoin: miter; stroke-miterlimit: 4; fill: rgb(125,153,232); fill-rule: nonzero; opacity: 1;"  x="-12.5" y="-25" rx="0" ry="0" width="25" height="50" />
</g>
<g transform="matrix(1 0 0 1 297.23 715.56)" id="2"  >
<rect style="stroke: rgb(0,0,0); stroke-width: 1; stroke-dasharray: none; stroke-linecap: butt; stroke-dashoffset: 0; stroke-linejoin: miter; stroke-miterlimit: 4; fill: rgb(125,153,232); fill-rule: nonzero; opacity: 1;"  x="-12.5" y="-25" rx="0" ry="0" width="25" height="50" />
</g>
<g transform="matrix(1 0 0 1 297.23 663.63)" id="2"  >
<rect style="stroke: rgb(0,0,0); stroke-width: 1; stroke-dasharray: none; stroke-linecap: butt; stroke-dashoffset: 0; stroke-linejoin: miter; stroke-miterlimit: 4; fill: rgb(125,153,232); fill-rule: nonzero; opacity: 1;"  x="-12.5" y="-25" rx="0" ry="0" width="25" height="50" />
</g>
<g transform="matrix(1 0 0 1 325.19 663.63)" id="2"  >
<rect style="stroke: rgb(0,0,0); stroke-width: 1; stroke-dasharray: none; stroke-linecap: butt; stroke-dashoffset: 0; stroke-linejoin: miter; stroke-miterlimit: 4; fill: rgb(125,153,232); fill-rule: nonzero; opacity: 1;"  x="-12.5" y="-25" rx="0" ry="0" width="25" height="50" />
</g>
<g transform="matrix(1 0 0 1 325.19 715.56)" id="2"  >
<rect style="stroke: rgb(0,0,0); stroke-width: 1; stroke-dasharray: none; stroke-linecap: butt; stroke-dashoffset: 0; stroke-linejoin: miter; stroke-miterlimit: 4; fill: rgb(125,153,232); fill-rule: nonzero; opacity: 1;"  x="-12.5" y="-25" rx="0" ry="0" width="25" height="50" />
</g>
<g transform="matrix(1 0 0 1 225.31 662.63)" id="2"  >
<rect style="stroke: rgb(0,0,0); stroke-width: 1; stroke-dasharray: none; stroke-linecap: butt; stroke-dashoffset: 0; stroke-linejoin: miter; stroke-miterlimit: 4; fill: rgb(125,153,232); fill-rule: nonzero; opacity: 1;"  x="-12.5" y="-25" rx="0" ry="0" width="25" height="50" />
</g>
<g transform="matrix(1 0 0 1 225.31 714.56)" id="2"  >
<rect style="stroke: rgb(0,0,0); stroke-width: 1; stroke-dasharray: none; stroke-linecap: butt; stroke-dashoffset: 0; stroke-linejoin: miter; stroke-miterlimit: 4; fill: rgb(125,153,232); fill-rule: nonzero; opacity: 1;"  x="-12.5" y="-25" rx="0" ry="0" width="25" height="50" />
</g>
<g transform="matrix(0 1 -1 0 120.42 541.8)" id="2"  >
<rect style="stroke: rgb(0,0,0); stroke-width: 1; stroke-dasharray: none; stroke-linecap: butt; stroke-dashoffset: 0; stroke-linejoin: miter; stroke-miterlimit: 4; fill: rgb(125,153,232); fill-rule: nonzero; opacity: 1;"  x="-12.5" y="-25" rx="0" ry="0" width="25" height="50" />
</g>
<g transform="matrix(1 0 0 1 338 262)" id="1"  >
<rect style="stroke: rgb(0,0,0); stroke-width: 1; stroke-dasharray: none; stroke-linecap: butt; stroke-dashoffset: 0; stroke-linejoin: miter; stroke-miterlimit: 4; fill: rgb(199,228,167); fill-rule: nonzero; opacity: 1;"  x="-12.5" y="-25" rx="0" ry="0" width="25" height="50" />
</g>
</svg>